<?xml version="1.0" encoding="UTF-8" standalone="no"?>
<svg
   preserveAspectRatio="xMidYMid"
   width="24"
   height="24"
   viewBox="0 0 24 24"
   version="1.1"
   id="svg2"
   xmlns="http://www.w3.org/2000/svg"
   xmlns:svg="http://www.w3.org/2000/svg">
  <defs
     id="defs1">
    <style id="style1">
      .anilist-bg {
         fill: #152232
      }

      .cls-1 {
         fill: #02a9ff;
      }

      .cls-1, .cls-2 {
         fill-rule: evenodd;
      }

      .cls-2 {
         fill: #fefefe;
      }
   </style>
  </defs>
  <g class="anilist-bg"
     id="g2"
     transform="matrix(0.13954,0,0,0.13954,-0.04348809,-0.01041711)">
    <path d="M 0,0 h 172 v 172 l -172,0 z"/>
    <path
       d="M 111.322,111.157 V 41.029 c 0,-4.019 -2.217,-6.237 -6.236,-6.237 H 91.365 c -4.019,0 -6.237,2.218 -6.237,6.237 0,0 0,15.308 0,33.304 0,0.938 9.037,5.293 9.273,6.214 6.885,26.902 1.496,48.433 -5.031,49.438 10.672,0.528 11.846,5.659 3.897,2.153 1.216,-14.354 5.961,-14.326 19.602,-0.528 0.117,0.119 2.797,5.741 2.964,5.741 15.337,0 32.217,0 32.217,0 4.019,0 6.236,-2.217 6.236,-6.236 v -13.721 c 0,-4.019 -2.217,-6.237 -6.236,-6.237 z"
       class="cls-1"
       id="path1" />
    <path
       d="M 54.365,34.792 18.331,137.351 h 27.996 l 6.098,-17.74 h 30.49 l 5.96,17.74 h 27.857 L 80.836,34.792 Z m 4.435,62.09 8.731,-28.412 9.563,28.412 z"
       class="cls-2"
       id="path2" />
  </g>
</svg>
